<svg xmlns="http://www.w3.org/2000/svg" viewBox="0 0 900 530" font-family="-apple-system, Segoe UI, Roboto, Helvetica, Arial, sans-serif">
  <defs>
    <marker id="arr" markerWidth="9" markerHeight="9" refX="7" refY="3" orient="auto" markerUnits="strokeWidth">
      <path d="M0,0 L7,3 L0,6 Z" fill="#8a93a6"/>
    </marker>
  </defs>

  <rect x="0.5" y="0.5" width="899" height="529" rx="14" fill="#11141b" stroke="#262b37"/>
  <text x="40" y="42" fill="#cfd6e2" font-size="15" font-weight="700">The factory: one command builds a general Doubter for any model</text>
  <text x="40" y="62" fill="#9aa3b2" font-size="11">metaloom build-universal — model-agnostic (--target-layers late); leakage-guarded by --suite.</text>

  <!-- command bar -->
  <rect x="40" y="76" width="820" height="30" rx="7" fill="#0b0e14" stroke="#262b37"/>
  <text x="56" y="96" fill="#f0b86e" font-size="11.5" font-family="monospace">$ metaloom build-universal --model-name N --quantization nf4 --per-class 70 --epochs 6 --suite s.json --eval --export-gguf</text>

  <!-- ===== stage 1: diverse mix ===== -->
  <rect x="40" y="130" width="186" height="180" rx="10" fill="#0e1622" stroke="#f0b86e"/>
  <text x="133" y="152" fill="#f0b86e" font-size="12" font-weight="700" text-anchor="middle">balanced diverse mix</text>
  <text x="133" y="168" fill="#7a8493" font-size="9.5" text-anchor="middle">When2Call · PopQA · SQuAD2</text>
  <text x="58" y="192" fill="#7fcf8f" font-size="10.5" font-weight="700">commit (act)</text>
  <text x="62" y="208" fill="#9aa3b2" font-size="10">• call (tool)</text>
  <text x="62" y="223" fill="#9aa3b2" font-size="10">• memory (answer)</text>
  <text x="58" y="246" fill="#f0b86e" font-size="10.5" font-weight="700">hold (withhold)</text>
  <text x="62" y="262" fill="#9aa3b2" font-size="10">• abstain · clarify</text>
  <text x="62" y="277" fill="#9aa3b2" font-size="10">• lookup · unknown</text>
  <rect x="58" y="288" width="150" height="8" rx="4" fill="#2f5a8a"/>
  <rect x="58" y="288" width="64" height="8" rx="4" fill="#7fcf8f"/>
  <text x="133" y="306" fill="#7a8493" font-size="9" text-anchor="middle">commit ≈ hold (210 / 280)</text>

  <!-- arrow -->
  <path d="M226,220 L256,220" stroke="#8a93a6" stroke-width="2" marker-end="url(#arr)"/>

  <!-- ===== stages 2-5 ===== -->
  <g>
    <rect x="260" y="180" width="120" height="80" rx="9" fill="#0e1622" stroke="#3a4456"/>
    <text x="320" y="214" fill="#cfd6e2" font-size="12" font-weight="700" text-anchor="middle">collect</text>
    <text x="320" y="232" fill="#7a8493" font-size="9.5" text-anchor="middle">frozen base →</text>
    <text x="320" y="245" fill="#7a8493" font-size="9.5" text-anchor="middle">activations</text>

    <path d="M380,220 L410,220" stroke="#8a93a6" stroke-width="2" marker-end="url(#arr)"/>

    <rect x="414" y="180" width="120" height="80" rx="9" fill="#0e1622" stroke="#3a4456"/>
    <text x="474" y="214" fill="#cfd6e2" font-size="12" font-weight="700" text-anchor="middle">train</text>
    <text x="474" y="232" fill="#7a8493" font-size="9.5" text-anchor="middle">wrapper only</text>
    <text x="474" y="245" fill="#7a8493" font-size="9.5" text-anchor="middle">(base frozen)</text>

    <path d="M534,220 L564,220" stroke="#8a93a6" stroke-width="2" marker-end="url(#arr)"/>

    <rect x="568" y="180" width="120" height="80" rx="9" fill="#0e1622" stroke="#3a4456"/>
    <text x="628" y="210" fill="#cfd6e2" font-size="12" font-weight="700" text-anchor="middle">eval --eval</text>
    <text x="628" y="228" fill="#7a8493" font-size="9.5" text-anchor="middle">per-axis →</text>
    <text x="628" y="241" fill="#7a8493" font-size="9.5" text-anchor="middle">floor / commit_mean</text>

    <path d="M688,220 L718,220" stroke="#8a93a6" stroke-width="2" marker-end="url(#arr)"/>

    <rect x="722" y="180" width="138" height="80" rx="9" fill="#0e1622" stroke="#3a4456"/>
    <text x="791" y="210" fill="#cfd6e2" font-size="12" font-weight="700" text-anchor="middle">export</text>
    <text x="791" y="228" fill="#7a8493" font-size="9.5" text-anchor="middle">checkpoint.pt +</text>
    <text x="791" y="241" fill="#7a8493" font-size="9.5" text-anchor="middle">GGUF sidecar</text>
  </g>

  <!-- ===== result ===== -->
  <text x="40" y="350" fill="#cfd6e2" font-size="12.5" font-weight="700">Result on a 6-axis held-out suite (Qwen2.5-14B): the only arm with no axis collapse</text>
  <g font-size="10" text-anchor="middle">
    <!-- mini bars: floor by arm -->
    <text x="120" y="500" fill="#9aa3b2">base</text>
    <rect x="92" y="474" width="56" height="13" rx="3" fill="#3a4456"/><rect x="92" y="474" width="7" height="13" rx="3" fill="#d9776c"/><text x="120" y="468" fill="#9aa3b2">0.13</text>
    <text x="300" y="500" fill="#9aa3b2">narrow (QA)</text>
    <rect x="272" y="474" width="56" height="13" rx="3" fill="#3a4456"/><rect x="272" y="474" width="15" height="13" rx="3" fill="#d9a05c"/><text x="300" y="468" fill="#9aa3b2">0.27</text>
    <text x="480" y="500" fill="#9aa3b2">narrow (agentic)</text>
    <rect x="452" y="474" width="56" height="13" rx="3" fill="#3a4456"/><rect x="452" y="474" width="22" height="13" rx="3" fill="#d9a05c"/><text x="480" y="468" fill="#9aa3b2">0.40</text>
    <text x="700" y="500" fill="#f0b86e" font-weight="700">diverse (factory)</text>
    <rect x="600" y="474" width="200" height="13" rx="3" fill="#3a4456"/><rect x="600" y="474" width="93" height="13" rx="3" fill="#7fcf8f"/><text x="700" y="468" fill="#7fcf8f" font-weight="700">floor 0.47</text>
  </g>
  <text x="40" y="380" fill="#9aa3b2" font-size="10.5">lifts hold axes (unknown 0.13→0.93) without collapsing commit — even raises "call" above every other arm (0.40→0.47).</text>
</svg>
